{
  "accessors": [
    {
      "bufferView": 0,
      "componentType": 5125,
      "count": 222153,
      "type": "SCALAR"
    },
    {
      "bufferView": 1,
      "componentType": 5126,
      "count": 42014,
      "max": [
        6.69416475296021,
        13.9809341430664,
        1.17849338054657
      ],
      "min": [
        -6.69416618347168,
        -0.0958881378173828,
        -4.02162218093872
      ],
      "type": "VEC3"
    },
    {
      "bufferView": 2,
      "componentType": 5126,
      "count": 42014,
      "type": "VEC3"
    },
    {
      "bufferView": 3,
      "componentType": 5126,
      "count": 42014,
      "type": "VEC2"
    }
  ],
  "asset": {
    "generator": "Substance Painter 6.2.2",
    "version": "2.0"
  },
  "bufferViews": [
    {
      "buffer": 0,
      "byteLength": 888612,
      "target": 34963
    },
    {
      "buffer": 0,
      "byteLength": 504168,
      "byteOffset": 888612,
      "target": 34962
    },
    {
      "buffer": 0,
      "byteLength": 504168,
      "byteOffset": 1392780,
      "target": 34962
    },
    {
      "buffer": 0,
      "byteLength": 336112,
      "byteOffset": 1896948,
      "target": 34962
    }
  ],
  "buffers": [
    {
      "byteLength": 2233060,
      "uri": "TOM_FORD_EVA_SHINY_GOLD_BLACK_autosave_2.bin"
    }
  ],
  "images": [
    {
      "uri": "09 - Default_baseColor.png"
    },
    {
      "uri": "09 - Default_occlusionRoughnessMetallic.png"
    },
    {
      "uri": "09 - Default_normal.png"
    }
  ],
  "materials": [
    {
      "alphaMode": "BLEND",
      "name": "09 - Default",
      "normalTexture": {
        "index": 2
      },
      "occlusionTexture": {
        "index": 1
      },
      "pbrMetallicRoughness": {
        "baseColorTexture": {
          "index": 0
        },
        "metallicRoughnessTexture": {
          "index": 1
        }
      }
    }
  ],
  "meshes": [
    {
      "name": "TOM_FORD_EVA_SHINY_GOLD_BLACK",
      "primitives": [
        {
          "attributes": {
            "NORMAL": 2,
            "POSITION": 1,
            "TEXCOORD_0": 3
          },
          "indices": 0,
          "material": 0,
          "mode": 4
        }
      ]
    }
  ],
  "nodes": [
    {
      "children": [
        1
      ],
      "name": "RootNode"
    },
    {
      "children": [
        2
      ],
      "name": "TOM_FORD_EVA_SHINY_GOLD_BLACK",
      "rotation": [
        -0.70710676908493,
        0.0,
        0.0,
        0.70710676908493
      ]
    },
    {
      "mesh": 0,
      "name": "TOM_FORD_EVA_SHINY_GOLD_BLACK"
    }
  ],
  "samplers": [
    {
      "magFilter": 9729,
      "minFilter": 9985,
      "wrapS": 10497,
      "wrapT": 10497
    }
  ],
  "scene": 0,
  "scenes": [
    {
      "name": "Scene",
      "nodes": [
        0
      ]
    }
  ],
  "textures": [
    {
      "sampler": 0,
      "source": 0
    },
    {
      "sampler": 0,
      "source": 1
    },
    {
      "sampler": 0,
      "source": 2
    }
  ]
}